
<svg xmlns="http://www.w3.org/2000/svg" version="1.1" xmlns:xlink="http://www.w3.org/1999/xlink" preserveAspectRatio="none" x="0px" y="0px" width="1024px" height="1227px" viewBox="0 0 1024 1227">
<defs>
<image id="Activo_Whatsappxd_psd_Capa_49" x="0" y="0" width="2400" height="2875" xlink:href="./images/Activo_Whatsappxd_psd_Capa_49.png"/>

<image id="Activo_Whatsappxd_psd_Capa_58" x="0" y="0" width="2400" height="2875" xlink:href="./images/Activo_Whatsappxd_psd_Capa_58.png"/>

<image id="Activo_Whatsappxd_psd_Capa_66" x="0" y="0" width="1423" height="2256" xlink:href="./images/Activo_Whatsappxd_psd_Capa_66.png"/>

<image id="Activo_Whatsappxd_psd_Capa_67" x="0" y="0" width="1171" height="2012" xlink:href="./images/Activo_Whatsappxd_psd_Capa_67.png"/>

<image id="Activo_Whatsappxd_psd_Capa_69" x="0" y="0" width="635" height="134" xlink:href="./images/Activo_Whatsappxd_psd_Capa_69.png"/>

<image id="Activo_Whatsappxd_psd_Logo_abreu_rostro" x="0" y="0" width="455" height="405" xlink:href="./images/Activo_Whatsappxd_psd_Logo_abreu_rostro.png"/>

<image id="Activo_Whatsappxd_psd_sm_Dise_ador_gr_fico" x="0" y="0" width="430" height="57" xlink:href="./images/Activo_Whatsappxd_psd_sm_Dise_ador_gr_fico.png"/>

<image id="Activo_Whatsappxd_psd_sm_Grupo_1_Capa_65" x="0" y="0" width="128" height="186" xlink:href="./images/Activo_Whatsappxd_psd_sm_Grupo_1_Capa_65.png"/>

<image id="Activo_Whatsappxd_psd_sm_Grupo_1_315_7090176" x="0" y="0" width="337" height="43" xlink:href="./images/Activo_Whatsappxd_psd_sm_Grupo_1_315_7090176.png"/>

<image id="Activo_Whatsappxd_psd_sm_Carlos_Ivan_Abreu_Avellaneda" x="0" y="0" width="562" height="235" xlink:href="./images/Activo_Whatsappxd_psd_sm_Carlos_Ivan_Abreu_Avellaneda.png"/>

<image id="Activo_Whatsappxd_psd_Capa_69_copia_3" x="0" y="0" width="1059" height="370" xlink:href="./images/Activo_Whatsappxd_psd_Capa_69_copia_3.png"/>

<image id="Activo_Whatsappxd_psd_qr_behance" x="0" y="0" width="299" height="299" xlink:href="./images/Activo_Whatsappxd_psd_qr_behance.png"/>

<image id="Activo_Whatsappxd_psd_sm_Grupo_1_Behance" x="0" y="0" width="223" height="45" xlink:href="./images/Activo_Whatsappxd_psd_sm_Grupo_1_Behance.png"/>

<image id="Activo_Whatsappxd_psd_Capa_68" x="0" y="0" width="982" height="128" xlink:href="./images/Activo_Whatsappxd_psd_Capa_68.png"/>

<image id="Activo_Whatsappxd_psd_sm_Grupo_1_Capa_63" x="0" y="0" width="215" height="146" xlink:href="./images/Activo_Whatsappxd_psd_sm_Grupo_1_Capa_63.png"/>

<image id="Activo_Whatsappxd_psd_sm_Grupo_1_abreuavellaneda_gmail_com" x="0" y="0" width="703" height="56" xlink:href="./images/Activo_Whatsappxd_psd_sm_Grupo_1_abreuavellaneda_gmail_com.png"/>

<image id="Activo_Whatsappxd_psd_Capa_69_copia" x="0" y="0" width="1059" height="370" xlink:href="./images/Activo_Whatsappxd_psd_Capa_69_copia.png"/>

<image id="Activo_Whatsappxd_psd_sm_Grupo_1_Reel" x="0" y="0" width="107" height="45" xlink:href="./images/Activo_Whatsappxd_psd_sm_Grupo_1_Reel.png"/>

<image id="Activo_Whatsappxd_psd_Objeto_inteligente_vectorial" x="0" y="0" width="300" height="300" xlink:href="./images/Activo_Whatsappxd_psd_Objeto_inteligente_vectorial.png"/>

<image id="Activo_Whatsappxd_psd_Capa_66_copia" x="0" y="0" width="1423" height="2256" xlink:href="./images/Activo_Whatsappxd_psd_Capa_66_copia.png"/>

<image id="Activo_boceto_por_capas_psd_Capa_42" x="0" y="0" width="2400" height="2875" xlink:href="./images/Activo_boceto_por_capas_psd_Capa_42.png"/>

<g id="S_mbolo_36_0_Layer0_0_FILL">
<path fill="#000000" stroke="none" d="
M -11.05 -13
L -9.05 -46.05 -68.1 -1.95 -28.05 46.1 -19.05 14.05 61.05 15.05 68.1 -16 -11.05 -13 Z"/>
</g>

<path id="S_mbolo_36_0_Layer0_0_1_STROKES" stroke="#FFFFFF" stroke-width="2" stroke-linejoin="round" stroke-linecap="round" fill="none" d="
M -9.05 -46.05
L -68.1 -1.95 -28.05 46.1 -19.05 14.05 61.05 15.05 68.1 -16 -11.05 -13 -9.05 -46.05 Z"/>
</defs>

<g transform="matrix( 0.429534912109375, 0, 0, 0.429534912109375, 0,0) ">
<use xlink:href="#Activo_Whatsappxd_psd_Capa_49"/>
</g>

<g transform="matrix( 0.429534912109375, 0, 0, 0.429534912109375, 0,0) ">
<use xlink:href="#Activo_Whatsappxd_psd_Capa_58"/>
</g>

<g transform="matrix( 0.429534912109375, 0, 0, 0.429534912109375, 206,176) ">
<use xlink:href="#Activo_Whatsappxd_psd_Capa_66"/>
</g>

<g transform="matrix( 0.429534912109375, 0, 0, 0.429534912109375, 254,216) ">
<use xlink:href="#Activo_Whatsappxd_psd_Capa_67"/>
</g>

<g transform="matrix( 0.429534912109375, 0, 0, 0.429534912109375, 281,841) ">
<use xlink:href="#Activo_Whatsappxd_psd_Capa_69"/>
</g>

<g transform="matrix( 0.429534912109375, 0, 0, 0.429534912109375, 261,263) ">
<use xlink:href="#Activo_Whatsappxd_psd_Logo_abreu_rostro"/>
</g>

<g transform="matrix( 0.429534912109375, 0, 0, 0.429534912109375, 474,409) ">
<use xlink:href="#Activo_Whatsappxd_psd_sm_Dise_ador_gr_fico"/>
</g>

<g transform="matrix( 0.429534912109375, 0, 0, 0.429534912109375, 299,829) ">
<use xlink:href="#Activo_Whatsappxd_psd_sm_Grupo_1_Capa_65"/>
</g>

<g transform="matrix( 0.429534912109375, 0, 0, 0.429534912109375, 377,861) ">
<use xlink:href="#Activo_Whatsappxd_psd_sm_Grupo_1_315_7090176"/>
</g>

<g transform="matrix( 0.429534912109375, 0, 0, 0.429534912109375, 472,292) ">
<use xlink:href="#Activo_Whatsappxd_psd_sm_Carlos_Ivan_Abreu_Avellaneda"/>
</g>

<g id="button_9" transform="matrix( 1, 0, 0, 1, 501.45,741.45) ">
<g transform="matrix( 0.429534912109375, 0, 0, 0.429534912109375, -227.45,-79.45) ">
<use xlink:href="#Activo_Whatsappxd_psd_Capa_69_copia_3"/>
</g>

<g transform="matrix( 0.429534912109375, 0, 0, 0.429534912109375, -208.45,-68.45) ">
<use xlink:href="#Activo_Whatsappxd_psd_qr_behance"/>
</g>

<g transform="matrix( 0.429534912109375, 0, 0, 0.429534912109375, -58.45,-37.45) ">
<use xlink:href="#Activo_Whatsappxd_psd_sm_Grupo_1_Behance"/>
</g>

<g transform="matrix( 1, 0, 0, 1, -56.45,4.45) ">
<clipPath id="Mask_Mask_1">
<rect x="-2" y="-2" width="282.8" height="18" fill="#FFFFFF" stroke="none"/>
</clipPath>

<text clip-path="url(#Mask_Mask_1)" writing-mode="lr"><tspan x="0" y="10.7" baseline-shift="0%" font-family="Neo Sans Pro" font-size="14" fill="#757575" xml:space="preserve">https://www.behance.net/abreuavell8248</tspan></text>
</g>
</g>

<g id="button_11" transform="matrix( 1, 0, 0, 1, 501.9,939.5) ">
<g transform="matrix( 0.429534912109375, 0, 0, 0.429534912109375, -210.9,-21.5) ">
<use xlink:href="#Activo_Whatsappxd_psd_Capa_68"/>
</g>

<g transform="matrix( 0.429534912109375, 0, 0, 0.429534912109375, -207.9,-33.5) ">
<use xlink:href="#Activo_Whatsappxd_psd_sm_Grupo_1_Capa_63"/>
</g>

<g transform="matrix( 0.429534912109375, 0, 0, 0.429534912109375, -113.9,-6.5) ">
<use xlink:href="#Activo_Whatsappxd_psd_sm_Grupo_1_abreuavellaneda_gmail_com"/>
</g>
</g>

<g id="button_8" transform="matrix( 1, 0, 0, 1, 501.45,570.45) ">
<g transform="matrix( 0.429534912109375, 0, 0, 0.429534912109375, -227.45,-79.45) ">
<use xlink:href="#Activo_Whatsappxd_psd_Capa_69_copia"/>
</g>

<g transform="matrix( 0.429534912109375, 0, 0, 0.429534912109375, -58.45,-34.45) ">
<use xlink:href="#Activo_Whatsappxd_psd_sm_Grupo_1_Reel"/>
</g>

<g transform="matrix( 0.429534912109375, 0, 0, 0.429534912109375, -206.45,-58.45) ">
<use xlink:href="#Activo_Whatsappxd_psd_Objeto_inteligente_vectorial"/>
</g>

<g transform="matrix( 1, 0, 0, 1, -56.45,8.95) ">
<clipPath id="Mask_Mask_2">
<rect x="-2" y="-2" width="282.8" height="18" fill="#FFFFFF" stroke="none"/>
</clipPath>

<text clip-path="url(#Mask_Mask_2)" writing-mode="lr"><tspan x="0" y="10.7" baseline-shift="0%" font-family="Neo Sans Pro" font-size="14" fill="#757575" xml:space="preserve">https://youtu.be/pE9ZcsGFcpE</tspan></text>
</g>
</g>

<g transform="matrix( 1, 0, 0, 1, -56.45,8.95) ">
<clipPath id="Mask_Mask_3">
<rect x="-2" y="-2" width="282.8" height="20" fill="#FFFFFF" stroke="none"/>
</clipPath>

<text clip-path="url(#Mask_Mask_3)" writing-mode="lr"><tspan x="0" y="12.25" baseline-shift="0%" font-family="Neo Sans Pro" font-size="16" fill="#757575" xml:space="preserve">https://youtu.be/pE9ZcsGFcpE</tspan></text>
</g>

<g transform="matrix( 0.429534912109375, 0, 0, 0.429534912109375, 206,176) ">
<use xlink:href="#Activo_Whatsappxd_psd_Capa_66_copia"/>
</g>

<g transform="matrix( 0.4295654296875, 0, 0, 0.4295654296875, 0,0) ">
<use xlink:href="#Activo_boceto_por_capas_psd_Capa_42"/>
</g>

<g id="button_3" transform="matrix( 1, 0, 0, 1, 163.9,123.15) ">
<g transform="matrix( 1, 0, 0, 1, 0,0) ">
<use xlink:href="#S_mbolo_36_0_Layer0_0_FILL"/>

<use xlink:href="#S_mbolo_36_0_Layer0_0_1_STROKES"/>
</g>
</g>
</svg>
